<?xml version="1.0" encoding="UTF-8" standalone="no"?>
<!-- Created with Inkscape (http://www.inkscape.org/) -->

<svg
   xmlns:dc="http://purl.org/dc/elements/1.1/"
   xmlns:cc="http://creativecommons.org/ns#"
   xmlns:rdf="http://www.w3.org/1999/02/22-rdf-syntax-ns#"
   xmlns:svg="http://www.w3.org/2000/svg"
   xmlns="http://www.w3.org/2000/svg"
   xmlns:sodipodi="http://sodipodi.sourceforge.net/DTD/sodipodi-0.dtd"
   xmlns:inkscape="http://www.inkscape.org/namespaces/inkscape"
   width="210mm"
   height="297mm"
   viewBox="0 0 744.09448819 1052.3622047"
   id="svg2"
   version="1.1"
   inkscape:version="0.91 r13725"
   sodipodi:docname="Crooked house 03.svg">
  <defs
     id="defs4">
    <inkscape:path-effect
       fuse_tolerance="0"
       vertical_pattern="false"
       prop_units="false"
       tang_offset="0"
       normal_offset="0"
       spacing="0"
       scale_y_rel="false"
       prop_scale="1"
       copytype="single_stretched"
       pattern="m 0,313.26772 c 0,-2.76 2.24,-5 5,-5 2.76,0 5,2.24 5,5 0,2.76 -2.24,5 -5,5 -2.76,0 -5,-2.24 -5,-5 z"
       is_visible="true"
       id="path-effect4241"
       effect="skeletal" />
  </defs>
  <sodipodi:namedview
     id="base"
     pagecolor="#ffffff"
     bordercolor="#666666"
     borderopacity="1.0"
     inkscape:pageopacity="0.0"
     inkscape:pageshadow="2"
     inkscape:zoom="0.49497475"
     inkscape:cx="-90.423199"
     inkscape:cy="526.50335"
     inkscape:document-units="px"
     inkscape:current-layer="layer1"
     showgrid="false"
     inkscape:window-width="1920"
     inkscape:window-height="1017"
     inkscape:window-x="-8"
     inkscape:window-y="-8"
     inkscape:window-maximized="1" />
  <metadata
     id="metadata7">
    <rdf:RDF>
      <cc:Work
         rdf:about="">
        <dc:format>image/svg+xml</dc:format>
        <dc:type
           rdf:resource="http://purl.org/dc/dcmitype/StillImage" />
        <dc:title></dc:title>
      </cc:Work>
    </rdf:RDF>
  </metadata>
  <g
     inkscape:label="Capa 1"
     inkscape:groupmode="layer"
     id="layer1">
    <path
       style="opacity:1;fill:#ffe6d5;fill-opacity:1;fill-rule:nonzero;stroke:none;stroke-width:8;stroke-linecap:butt;stroke-linejoin:round;stroke-miterlimit:4;stroke-dasharray:none;stroke-dashoffset:0"
       d="m 614.13945,580.20275 c -0.75979,5.51987 -2.34605,9.31257 -4.19317,9.31257 l -32.82829,0 c -5.34938,2.65277 -11.23764,2.6786 -17.0911,0 l -94.32976,0 c -1.08431,0.14215 -2.15584,0.1366 -3.21002,0 l -262.55789,0 c -0.44529,0 -0.87341,-0.23657 -1.28078,-0.64752 2.27615,69.43463 6.74226,134.77138 8.30362,216.62287 2.15472,97.02949 -14.49797,110.78179 -0.93184,111.34729 l 2.95136,1.75273 c 11.24053,0.46847 48.44616,-7.11994 63.62849,-6.90228 17.60561,-0.39522 37.74036,1.13239 56.94888,-15.30282 13.21761,-5.3462 27.96093,-6.07902 37.60813,-2.50517 18.87728,-1.50088 33.91844,15.47657 53.34243,17.5131 16.64359,1.89523 36.31815,-2.36927 52.56083,-1.75951 10.01062,4.50281 18.71124,-9.02853 29.87308,-11.28896 13.61906,-6.95799 31.6461,-16.13007 43.2979,-8.10235 8.05897,-3.8212 65.63144,14.02915 71.19896,-17.36729 0.93315,-46.57534 -4.72336,-60.39169 -3.61223,-107.23519 2.58036,-46.81146 2.11344,-117.1876 0.3214,-185.43747 z"
       id="path4280"
       inkscape:connector-curvature="0" />
    <path
       style="opacity:1;fill:#e9d3c6;fill-opacity:1;fill-rule:nonzero;stroke:none;stroke-width:8;stroke-linecap:butt;stroke-linejoin:round;stroke-miterlimit:4;stroke-dasharray:none;stroke-dashoffset:0"
       d="M 340.50977 389.93359 C 340.05666 389.95076 339.33301 390.32227 338.25 391.27539 C 339.34531 396.44644 342.47321 389.8592 340.50977 389.93359 z M 415.26953 390.21289 C 408.97463 391.60947 402.6546 392.63527 396.31445 393.39258 C 395.0605 392.39372 392.57802 391.70969 393.49805 393.7168 C 388.27615 394.27336 383.03965 394.64921 377.79492 394.88867 C 377.48134 394.07232 376.60132 393.43148 375.54102 394.93945 C 375.55593 394.95512 375.56727 394.96319 375.58203 394.97852 C 375.48889 394.9821 375.39588 394.98673 375.30273 394.99023 C 375.44863 394.26013 375.14023 393.35417 374.17578 395.0293 C 342.32823 396.1169 310.14189 392.58409 278.29297 394.45508 C 272.15462 394.5737 265.96382 394.56569 259.75391 394.55078 C 259.59923 395.1131 259.00621 395.73337 258.5293 394.62109 C 258.55902 394.59272 258.58086 394.57703 258.60938 394.55078 C 236.67304 394.49455 214.47176 394.38 193.12305 399.05469 C 191.09085 445.77955 162.17716 659.87674 155.23828 773.44531 C 150.31226 854.06942 151.72852 941.53711 151.72852 941.53711 C 151.72852 941.53711 186.10751 942.03549 212.04102 942.15625 C 213.80249 922.07864 217.81751 901.77685 216.5918 880.52148 C 213.4512 823.55552 217.66197 791.26952 224.29297 750.93359 C 233.88997 710.23572 277.61884 694.88933 307.74414 701.25 C 330.69534 707.01412 370.86574 720.10167 371.90234 766.36719 C 375.18664 789.83335 370.3755 815.12742 373.2793 837.75195 C 366.6782 860.3721 377.79763 875.0185 373.92773 893.32227 C 373.21353 903.73575 370.80186 922.84307 374.09766 930.42188 C 373.75626 932.69036 373.49975 934.69942 373.27539 936.60742 C 388.7215 936.83473 404.09075 935.44991 419.4668 934.42578 C 418.83248 915.91829 418.28542 892.53013 417.70898 862.22266 C 422.84218 808.47132 415.93869 732.20207 448.87109 717.97656 C 467.17769 704.78526 490.69348 698.37087 512.51758 698.38867 C 534.34168 698.40648 554.47397 704.85768 566.00977 717.40039 C 577.43777 749.1765 576.94074 795.78997 582.21484 848.5 C 585.09896 877.32337 590.89166 909.04106 593.11523 933.61328 C 625.25483 930.89696 637.67773 930.89648 637.67773 930.89648 C 637.67773 930.89648 629.06081 860.43744 627.14258 833.44141 C 627.80597 827.48253 628.42538 821.5117 629.00781 815.5332 C 629.46678 815.26668 629.66259 814.89027 629.09375 814.625 C 637.23162 730.48726 637.31569 644.97495 628.22266 572.625 C 625.76644 553.08174 626.89694 529.64443 623.24023 508.95312 C 622.77193 491.61208 618.56756 457.27653 616.44922 433.63086 C 623.28685 398.67401 584.37287 397.18462 557.50195 401.56836 C 557.35245 401.55517 557.21237 401.5707 557.0918 401.63867 C 553.6674 402.20757 550.44111 402.86546 547.54297 403.56445 C 548.5211 401.64307 546.83978 398.50287 542.71875 403.57031 C 543.08951 403.8355 543.43409 404.03868 543.76367 404.20703 C 513.04768 403.12692 481.84389 403.26566 452.41016 394.40625 C 440.10002 392.82758 426.7733 395.98912 415.26953 390.21289 z M 258.60938 394.55078 C 258.99151 394.55176 259.37194 394.54986 259.75391 394.55078 C 259.89561 394.03565 259.66388 393.58017 258.60938 394.55078 z M 337.55469 390.58008 C 337.42853 390.62129 337.36929 390.85573 337.49023 391.43164 C 338.91904 392.07265 337.93316 390.45644 337.55469 390.58008 z M 342.91211 390.72852 C 342.55794 390.71131 342.08528 390.80224 341.47266 391.04688 C 342.13235 396.25011 345.39133 390.84893 342.91211 390.72852 z M 336.71484 391.44727 C 336.1823 391.4369 335.86045 391.67361 336.70898 392.40625 C 339.07723 392.16817 337.60241 391.46454 336.71484 391.44727 z M 206.76172 394.70117 C 205.7352 394.64796 204.38093 395.3353 206.68555 396.35938 C 208.16043 395.23193 207.56012 394.74256 206.76172 394.70117 z M 238.18359 394.78906 C 239.14262 394.54467 238.14482 397.99534 237.18359 395.66406 C 237.638 395.09748 237.96228 394.84546 238.18359 394.78906 z M 211.33398 397.61133 C 211.50848 397.63024 211.7845 397.81214 212.19141 398.25781 C 211.71144 400.50072 210.57784 397.52936 211.33398 397.61133 z M 182.22266 404.18164 C 180.37397 405.26288 180.59257 405.13504 182.22266 404.18164 z M 178.32031 425.93555 L 178.19922 426.21484 L 178.32031 425.93555 z M 181.0918 448.14844 L 180.90234 448.61719 L 181.0918 448.14844 z M 186.4043 461.64648 L 185.71094 462.14844 L 186.4043 461.64648 z M 618.19922 483.91602 C 618.77295 483.98663 617.43436 485.65952 617.45508 484.18164 C 617.83117 483.96888 618.06682 483.89972 618.19922 483.91602 z "
       id="path4192-4" />
    <g
       style="display:inline"
       id="g4213"
       transform="matrix(-1.7020536,0,0,1.7020536,828.01666,-514.85137)">
      <path
         style="opacity:1;fill:#d85454;fill-opacity:1;fill-rule:nonzero;stroke:none;stroke-width:8;stroke-linecap:butt;stroke-linejoin:round;stroke-miterlimit:4;stroke-dasharray:none;stroke-dashoffset:0"
         d="m 322.52539,361.06445 c -13.29654,-0.24197 -24.67431,8.47128 -37.91597,8.39348 -17.45665,2.71723 -34.94872,4.64368 -52.13682,8.84861 -15.29508,2.67149 -30.43223,6.94366 -45.34864,10.63534 -12.24025,-0.0111 -23.2929,5.9875 -34.41138,10.18771 -15.65981,9.02848 -12.58071,28.94507 -21.31454,42.39962 -4.44176,15.08238 -5.95654,30.9599 -13.12313,45.09672 -5.14381,14.64048 -16.83989,56.31047 -16.83989,56.31047 0,0 21.30196,-1.00037 33.82898,-0.0448 14.21088,-1.02197 25.5404,-4.02861 39.73804,-3.99377 12.31777,0.0302 27.65733,1.90315 40.15232,2.10569 10.77818,0.17471 23.90315,-0.12477 32.03894,0.43108 20.40976,1.96422 46.10771,-0.57678 64.86435,-1.45672 10.70318,-0.50212 20.02815,0.65819 31.00195,2.55642 11.35616,1.72616 23.25827,-0.78512 31.01008,0.37725 8.53535,1.27986 17.63465,-2.71746 27.43675,0.70661 -0.11071,-7.55873 -3.55471,-19.16699 -6.69588,-27.81795 -8.31292,-13.75019 -7.67918,-28.19847 -13.66796,-44.57778 -3.03101,-8.2898 -10.35368,-23.86267 -15.13516,-35.06154 -3.03364,-16.61328 -10.12746,-31.88938 -17.50377,-46.96137 -3.70753,-10.77287 -9.56579,-26.22776 -9.56579,-26.22776 0,0 -13.23303,-1.88087 -16.41248,-1.90729 z"
         id="path4206"
         inkscape:connector-curvature="0"
         sodipodi:nodetypes="cccccccccsscscsccsccccc" />
    </g>
    <path
       style="display:inline;fill:#c1573a;fill-opacity:1;fill-rule:evenodd;stroke:none;stroke-width:1px;stroke-linecap:butt;stroke-linejoin:miter;stroke-opacity:1"
       d="m 400.67634,462.48351 c -6.22712,0.64637 -13.42279,0.98983 -18.905,-0.63459 -7.12352,-0.63346 -13.0537,1.48774 -19.91927,-0.69551 -7.15439,-4.45108 -14.75092,3.70466 -21.63395,-2.1358 -7.02829,3.63515 -15.09082,1.05101 -22.53577,3.816 -6.11193,4.44368 -9.14737,12.95206 -6.28276,19.4074 -1.68001,6.22929 1.81401,14.16668 -0.25071,20.903 -0.55819,6.5347 -0.43023,12.97923 -0.0718,19.44075 -0.0645,6.23019 0.96914,12.28628 0.23431,18.56788 1.39278,8.80514 -6.9683,17.97768 -2.07038,25.95728 1.14155,7.2159 2.0955,14.82604 1.17904,22.15513 -0.6721,7.42395 -1.5359,16.02234 2.27038,22.16538 4.47311,4.80981 11.40721,3.45542 17.17932,5.30978 5.3678,2.63695 11.77069,0.73888 16.82678,3.73372 6.08119,3.07884 12.6094,-0.31694 18.1201,2.26453 4.70215,3.79155 12.91248,1.54353 19.16539,3.90925 6.47567,-3.7062 18.23196,3.10451 21.39256,-4.73355 -0.36667,-5.36849 5.60739,-6.65134 4.74004,-12.84489 0.0514,-7.33063 0.64215,-14.52296 -0.16429,-21.71458 0.32946,-7.79873 -1.97382,-15.1722 0.45953,-23.53242 -1.70456,-7.67529 -0.69007,-13.95333 0.88833,-21.26766 -1.51871,-4.2945 3.52861,-6.05491 -1.36281,-7.15939 -0.66043,-5.94963 -0.45738,-12.19039 -1.67344,-18.79946 -0.64378,-3.8059 1.32632,-10.79191 0.34366,-12.4863 0.27553,3.93615 -1.40825,-5.34404 -0.92905,-6.59117 4.85556,-8.2171 0.7137,-16.84131 -1.24556,-24.62035 0.36539,-4.9863 -0.23234,-10.41785 -5.75469,-10.41421 z m 7.79777,37.84546 c 0.40698,-0.67992 0.2663,-0.44487 0,0 z m 0.4035,1.98555 c 1.2526,0.70506 0.48648,-2.45115 0,0 z m 0.75741,-0.75492 c 0.36615,-0.50581 -0.82974,-0.3474 0,0 z m -0.32619,19.83076 c -0.33226,1.41063 0.68644,0.15352 0,0 z m 0.66707,4.52535 0.92015,-0.25589 -0.92015,0.25589 z m -1.41403,0.66408 c 1.30501,2.14417 1.43352,-1.52104 0,0 z m 0.29735,4.79197 c 2.38083,0.0476 -0.6176,-1.58258 0,0 z m 0.99894,1.37639 c 2.67623,1.67203 -0.59931,-3.89375 0,0 z m 0.99497,0.81228 0.37026,0.2797 -0.37026,-0.2797 z m -0.92888,1.03083 c -0.58445,2.44259 1.26313,0.84486 0,0 z m -10.77747,91.20203 c -0.87704,-0.66398 0.1881,0.96868 0,0 z m -20.17045,0.0961 c -2.03426,-0.74914 -0.76792,1.19496 0,0 z m -4.77834,-0.59136 c -0.59311,-1.70648 -1.35494,1.47819 0,0 z m -0.99653,0.0459 c -1.79554,-0.0549 -0.29635,3.90076 0,0 z m -28.79522,-5.03414 -0.50263,0.0602 0.50263,-0.0602 z m -11.23426,-3.22543 c -2.17816,-0.71534 2.56847,1.54765 0,0 z m -22.39707,-9.75379 c -1.22796,-2.46818 -1.40504,1.19505 0,0 z m -0.95901,-6.37555 -0.0725,0.0485 0.0725,-0.0485 z m 0.77381,-90.1876 c -0.20854,-1.3737 -0.83144,1.91825 0,0 z m -0.11533,-0.40029 c 1.03671,-0.57444 -0.29589,-0.70802 0,0 z m 1.44691,-9.34733 c 0.38043,0.33578 0.0679,-0.49261 0,0 z m 0.45833,-11.87532 c -1.49317,-1.32453 -2.64983,1.60584 0,0 z m 86.19597,-24.83915 0.11258,0.0571 -0.11258,-0.0571 z m -9.23983,-1.45619 c 3.17623,-0.23557 -0.52732,1.59103 0,0 z m 11.64542,9.39241 c 1.04243,0.18685 -0.1428,0.91216 0,0 z m 0.66469,0.15114 c 1.16726,0.0885 -0.61723,0.9541 0,0 z m -82.65404,-9.04859 c 0.10173,0.79065 -0.82256,-0.18968 0,0 z m 90.4543,22.01734 c 1.9971,1.21137 -1.85581,1.51445 0,0 z m -1.9148,10.93033 c 0.72054,1.47527 -1.77103,-1.07934 0,0 z m -95.76331,-10.79466 c 4.30099,2.7129 -3.58364,-0.84774 0,0 z m 0.1366,9.63447 c 0.52859,1.39578 -1.15867,-0.13457 0,0 z m 96.14908,25.6581 c 0.17053,0.42812 -1.08122,-0.5751 0,0 z m 2.29917,22.16731 c 2.91586,1.65853 -1.67443,2.3392 0,0 z m -98.80582,2.42735 0.29157,0.1187 -0.29157,-0.1187 z m -1.05241,54.36884 c 0.7859,0.24345 -0.59438,1.13769 0,0 z m 9.30923,7.11858 c 0.64206,1.56074 -1.40504,0.74164 0,0 z m 70.15485,15.17645 c 1.95153,0.81917 -0.0643,3.0562 0,0 z m 3.85851,1.06072 c 2.59451,3.44545 -4.97414,-0.50509 0,0 z m 4.64666,1.32205 c 0.0867,1.16821 -1.38236,-0.25621 0,0 z m -9.86109,-1.28734 c 0.76604,0.53167 -1.21881,-0.0976 0,0 z m 5.03806,1.5493 c 0.14903,0.41641 -0.53121,-0.0452 0,0 z m -4.13672,0.15685 c 1.16085,1.54546 -1.40115,-0.23125 0,0 z m -66.76555,-10.57514 c 1.3744,0.26908 -0.56264,0.43826 0,0 z m -6.32628,-1.00335 c 1.22966,1.28811 -2.34965,-0.15316 0,0 z"
       id="path4154"
       inkscape:connector-curvature="0" />
    <path
       style="fill:#ff7f2a;fill-opacity:1;fill-rule:evenodd;stroke:none;stroke-width:1px;stroke-linecap:butt;stroke-linejoin:miter;stroke-opacity:1"
       d="m 532.54495,80.762758 c 8.64039,-0.446289 15.43705,5.469839 23.16883,7.040295 6.93228,3.874967 14.94017,10.845453 23.86849,12.393737 7.152,3.61185 15.91992,5.82773 23.18172,11.07199 8.41852,5.37349 18.6128,9.02181 25.28474,16.66713 -2.41556,4.55161 -3.56123,10.90426 -8.22857,16.82517 -5.07148,6.15337 -6.87547,15.70307 -10.86426,23.17033 -3.13858,8.06788 -4.58049,16.71128 -9.0905,21.83896 -1.37689,8.698 -5.99497,15.68009 -7.32489,24.68713 -3.30851,10.18179 -11.81741,17.47112 -14.42767,27.71078 -2.70381,9.29561 -6.13211,18.95275 -10.38002,27.22544 -2.62921,8.49161 -12.38714,11.89593 -19.02338,4.96568 -6.40921,-0.71304 -14.74912,1.68871 -22.59732,-3.79891 -7.99839,-4.16714 -16.64224,-6.61126 -25.07105,-8.83745 -8.21302,-5.70765 -17.61037,-9.05388 -25.91955,-14.5665 -7.7288,-0.38412 -22.00453,-4.13195 -16.13802,-14.43022 1.21102,-8.92463 5.31262,-16.73783 8.14531,-25.31654 4.79375,-6.27571 10.11909,-11.00727 13.5308,-19.82321 2.04403,-8.17819 7.7272,-14.47526 11.10388,-22.05946 4.91332,-7.10303 4.25006,-15.74851 9.71095,-22.43267 5.95316,-8.40052 10.6793,-17.02786 13.07737,-27.31725 2.44772,-6.1957 5.38528,-13.75058 8.70772,-18.792755 -0.25039,-7.294578 3.47959,-15.354329 9.28542,-16.221677 z m -16.69051,32.861882 -0.45266,-0.18777 z m -49.68513,96.4953 c -0.60274,1.91093 -1.54146,-1.08617 0,0 z m -1.32385,5.0171 c -0.94223,0.0214 0.45825,-0.49684 0,0 z m -0.3544,-0.21064 c -2.24588,-0.60518 1.1743,-0.75417 0,0 z m -0.0624,0.0159 -0.35322,-0.21079 z m -0.35915,-0.22697 c -0.68118,-0.68219 -0.39204,-0.39263 0,0 z m 0.26472,0.25482 0.047,0.0394 z m 0.047,0.0394 0.27569,0.17833 z m -0.55234,0.93993 c -0.30549,-1.17289 1.12262,-0.035 0,0 z m -4.03355,13.46529 c -0.43298,-0.45624 0.99968,-0.71284 0,0 z m 0.18865,-0.45934 c 0.0967,-0.5817 1.2836,-0.18313 0,0 z m -0.10224,2.22015 c 0.63636,0.31356 -0.76431,0.28384 0,0 z m 13.67178,15.81851 c 0.59504,0.0373 -0.53168,0.59719 0,0 z m 4.6855,1.78847 c -0.3046,0.46645 -0.30644,-0.66487 0,0 z m -0.16842,0.10076 c 1.33658,1.54136 -1.41482,0.46699 0,0 z m 1.34661,0.90872 c 0.76882,1.4216 -0.83942,-0.58155 0,0 z m 68.37198,24.23417 c 2.05391,0.55418 -1.63397,2.16503 0,0 z m 2.13942,1.09631 c 0.73871,0.88546 -1.32691,0.59335 0,0 z m 0.617,0.11878 0.0992,0.1152 z m 28.70509,-37.16406 c -1.13262,-0.99439 1.46728,-0.48104 0,0 z m 45.12651,-102.3712 c 1.01732,0.23232 -0.26388,0.38036 0,0 z m 0.26722,0.24464 0.29897,0.44784 z m 0.0985,0.025 c -1.10898,-1.74608 1.56514,-0.1251 0,0 z m 1.00932,-1.90198 c -2.02297,-1.32274 2.80913,-0.64586 0,0 z m 0.16934,-0.93144 c -1.62469,0.6095 1.02251,-0.70208 0,0 z m 1.12667,-2.21531 c 0.37588,-0.23239 -0.13154,0.88031 0,0 z m -88.2502,-49.536904 c -0.38197,-0.332327 0.55456,-0.475053 0,0 z m -0.13338,-0.242447 -0.0999,0.11184 z m -7.0119,9.943619 c -0.72992,1.853779 3.70776,-0.378048 0,0 z m 5.22447,0.689537 -0.0606,0.285103 z m -0.1764,0.324923 c -0.7925,0.476663 0.60461,0.227936 0,0 z m 0.12118,0.01341 c -0.23192,0.52449 0.77271,-0.09933 0,0 z m -1.17885,0.304954 c 1.06756,1.340951 1.40521,-0.190284 0,0 z m 0.50986,-0.0057 c 3.45932,-0.100254 -1.51006,0.637922 0,0 z m 2.5497,1.135559 c -2.21291,3.252754 -2.10529,4.669727 0,0 z m 88.69357,35.059449 c -1.75794,-0.53471 0.81625,2.00004 0,0 z m -128.46357,21.07164 c -0.46009,0.84765 0.53212,0.0914 0,0 z m -32.59798,60.9818 c -0.80641,0.19785 0.69945,0.67496 0,0 z"
       id="path4229"
       inkscape:connector-curvature="0"
       sodipodi:nodetypes="cccccccccccccccccccccccccccccccccccccccccccccccccccccccccccccccccccccccccccccccccccccccccccccccccccccccccccc" />
    <path
       sodipodi:nodetypes="ccccccccccccccc"
       style="display:inline;fill:#c1573a;fill-opacity:1;fill-rule:evenodd;stroke:none;stroke-width:1px;stroke-linecap:butt;stroke-linejoin:miter;stroke-opacity:1"
       d="m 509.30635,465.39221 c 7.49624,-1.39679 18.16525,-5.38831 18.40651,0.55753 0.31429,6.04097 6.40864,9.65754 7.07648,15.73043 1.03515,21.37326 0.24472,39.04307 0.79015,60.46507 0.74526,10.11514 -0.84104,26.01832 2.15569,35.88908 3.26596,16.33663 3.44769,28.93165 -14.18359,34.79211 -15.22532,0.79391 -30.52082,1.27583 -45.80086,1.05057 -11.39739,-0.17701 -22.86174,0.29113 -34.20005,-0.82898 -11.26589,-2.16064 -16.75909,3.44782 -19.04581,-3.94303 -0.51311,-21.80705 2.64869,-52.48604 2.49867,-74.31797 0.0852,-7.56128 2.2497,-25.00123 0.90821,-32.38644 -0.70573,-9.74842 0.51122,-23.51049 -2.32826,-33.12014 1.17102,-9.51554 15.47565,-5.88082 23.50969,-5.15872 9.50752,-0.89695 18.3127,-5.54516 28.05703,-4.82879 12.7875,-0.97636 19.6103,8.54555 32.15614,6.09928 z"
       id="path4343"
       inkscape:connector-curvature="0" />
    <path
       style="opacity:1;fill:#b5c1c1;fill-opacity:1;fill-rule:nonzero;stroke:none;stroke-width:8;stroke-linecap:butt;stroke-linejoin:round;stroke-miterlimit:4;stroke-dasharray:none;stroke-dashoffset:0"
       d="m 453.55228,539.6736 c -14.42418,2.40964 -28.94826,-3.75634 -43.27071,-1.57664 -13.50358,3.51424 -27.65493,5.79561 -41.36898,2.09903 -17.56163,3.04217 -35.36972,0.99039 -52.91646,4.11232 -12.77585,2.46833 -25.91894,-1.10403 -38.48555,1.17989 -7.70914,7.50913 -5.60186,21.39497 -5.60822,32.22021 -0.75852,7.80555 1.86987,17.47108 1.04266,18.15517 0.58421,7.41951 -1.96418,17.08229 1.22815,22.16745 -5.51819,11.79634 1.55351,20.98041 11.66111,16.07829 12.81699,-0.50714 26.0275,3.69392 38.58821,-1.20493 14.49013,2.19576 29.02155,-0.48563 43.40395,-2.28282 5.44894,-0.5592 16.15646,-2.26027 14.01123,0.0311 15.01977,2.90048 29.14942,-6.31301 44.11021,-5.30046 10.03232,-2.01428 17.67089,5.25599 28.27189,1.14203 10.03667,3.70681 21.96567,-7.03286 32.73264,0.26064 9.48993,-4.81879 20.74097,0.0547 32.01828,0.15954 11.42443,-1.36167 22.98387,-3.1968 34.30826,1.65443 13.8287,5.17724 9.63679,-15.92218 9.9284,-24.98033 -0.54711,-10.96071 -2.65596,-21.60257 -1.34285,-30.95205 0.0194,-10.74485 3.55544,-23.53163 -2.24098,-33.63993 -11.49041,-0.64961 -22.95854,1.74346 -34.41482,1.38804 -9.63116,1.24875 -19.04284,-2.82565 -28.2421,-1.80191 -20.43139,3.53668 -21.91004,-8.28309 -43.41432,1.09088 z m 46.99817,12.95846 c 10.04336,1.61946 17.0919,2.80151 27.29421,-0.26498 7.27112,1.81158 27.87786,-5.25417 22.69218,11.00871 0.851,12.98344 -1.84231,24.22001 -1.09472,37.36779 -2.10719,5.86133 5.93011,15.07582 -3.76585,9.28824 -4.43788,-0.93622 -14.23668,-0.81375 -7.73074,-7.58445 -6.75995,-8.52862 -3.5244,-33.87135 -5.28168,-45.93701 1.52353,-10.30423 -13.99366,-16.24775 -10.31347,-1.19406 6.71328,11.02468 1.50403,33.68896 4.65753,45.11247 -3.3879,5.17466 4.55151,8.74589 -3.75366,10.64424 -9.71233,1.22938 -24.9954,-1.23427 -20.53943,-17.90515 4.40195,-9.42757 -2.53707,-16.1997 -1.87449,-27.60692 -0.23618,-4.30554 -0.23017,-8.61882 -0.28984,-12.92889 z m -72.11384,2.33086 c 7.31661,-0.51032 -5.15853,11.77754 0.68642,18.47184 3.87933,10.88512 4.63871,23.315 2.68823,34.87445 -6.30033,4.67095 -17.97942,-2.22362 -25.39353,4.54394 4.45281,-7.14801 0.31287,-13.56195 1.76316,-21.67087 -0.61554,-10.91429 -2.22565,-24.73167 -1.6421,-33.74144 6.94984,-3.11743 14.67906,-1.21107 21.89739,-2.47795 z m 24.55138,-0.45182 c 9.9236,-2.88204 8.4739,13.47192 10.50875,21.31533 -0.48892,5.3378 -1.25813,14.58648 0.71716,13.22334 0.4189,4.98956 1.19728,11.52812 0.31356,19.135 -6.52852,2.60741 -20.99391,7.02608 -23.95084,-1.18405 0.002,-11.42382 -1.05206,-23.41532 -1.72489,-35.5704 -9.077,-16.2991 5.06313,-15.77365 14.13626,-16.91922 z m 10.05598,34.90996 c -0.14992,1.33779 -0.0972,0.86756 0,0 z m 29.04745,-34.41291 c -1.8012,12.61554 4.06793,25.12802 4.41049,37.18587 -1.62297,9.23589 0.43761,20.46527 -10.77077,18.11868 -4.71833,2.55439 -4.54435,5.36064 -8.35469,0.55772 -2.91884,0.57681 -11.55222,2.84218 -4.95355,-0.80774 -0.0715,-12.72674 1.17448,-25.67077 -1.92383,-38.35551 -0.17262,-7.54342 -3.85365,-19.26296 5.92776,-14.77644 5.20235,-0.82013 10.40552,-1.77369 15.66459,-1.92258 z m -207.57336,5.94865 c 9.35307,-0.0781 20.66684,1.16454 20.15431,15.79947 -4.34343,7.95772 -5.24412,24.58558 0.15169,33.58608 -0.48757,4.93004 -16.04943,12.59 -19.39053,1.64755 -2.89492,-5.59103 1.37944,-19.86719 -2.30914,-20.39678 6.30952,-3.6604 -3.87415,-17.22145 3.5853,-21.27701 -0.0768,-3.24594 -0.83669,-6.54442 -2.19163,-9.35931 z m 112.51651,-2.63996 c 2.15005,9.59507 1.16421,20.6282 1.96784,29.22152 3.84493,3.92361 -1.70817,28.26171 -6.25739,28.35754 -4.77366,1.10675 -13.86837,-2.24098 -16.36732,-3.08051 -2.74565,-12.68513 -1.07204,-25.38011 -0.78923,-38.36699 -2.2143,-8.51204 -2.922,-17.06743 6.8607,-13.29632 5.35705,1.71703 9.76628,-0.82604 14.5854,-2.83524 z m 1.45214,55.4674 c -0.81939,-1.07979 -0.68263,-0.89955 0,0 z m -0.67641,-0.89138 c -0.62724,-1.25084 -0.5194,-1.03581 0,0 z m 2.62065,-22.48066 c -4.57495,-2.48146 -0.6851,2.33795 0,0 z m -78.63282,-29.70718 c 12.52578,-3.90316 16.96048,12.72779 10.79663,23.54037 4.10881,10.37403 3.6098,20.88589 2.22019,30.6673 5.06883,5.04927 13.01413,-2.15107 7.47434,-6.58158 5.13035,-2.84649 -2.16823,-16.1544 1.17837,-23.81212 -1.87755,-10.53399 -4.07945,-26.01895 8.48592,-23.59724 4.59341,-4.16936 14.11446,3.2838 12.88376,1.10102 1.01366,1.50881 -0.83413,19.4648 0.28267,27.22208 0.39946,7.0493 0.28024,18.19079 2.58066,20.2212 1.4204,12.9174 -5.92591,0.97639 -10.65136,5.46931 7.58143,6.72423 -8.07001,-1.38184 -12.09177,1.61142 -9.99757,-0.90164 -18.99492,-3.16629 -28.70909,0.1344 -7.89073,-0.16014 -3.13104,-7.92014 -5.66265,-13.10861 4.02355,-13.53857 -2.65718,-29.53185 1.51252,-42.04327 3.07972,-1.52017 6.50357,-0.0938 9.69982,-0.82431 z m -11.55731,54.63206 c 1.24812,0.54797 -0.43483,0.91012 0,0 z"
       id="path4184-2"
       inkscape:connector-curvature="0"
       sodipodi:nodetypes="ccccccccccccccccccccccccccccccccccccccccccccccccccccccccccccccccccccccccccccccccccccccccccccccccc" />
  </g>
</svg>
